# xmcd
#
# Track frame offsets:
#	150
#	14805
#	26669
#	41002
#	56377
#	68962
#	87659
#	104084
#	116646
#	132451
#	147328
#	161928
#
# Disc length: 2334 seconds
#
# Revision: 0
# Processed by: cddbd v1.5.2PL0 Copyright (c) Steve Scherf et al.
# Submitted via: EasyCDDAExtractor 16.0.6.1
#
DISCID=bb091c0c
DTITLE=Πλασταράς Νίκος - Ρεμπέτικες βραδιές στου Πλασταρά
DYEAR=1993
DGENRE=Ρεμπέτικη
TTITLE0=Πλασταράς Νίκος - Ο ναυτικός
TTITLE1=Πλασταράς Νίκος - Το σαϊνι
TTITLE2=Χατζηιωάννου Βέτα-Πλασταράς Νίκος - Ο αλανιάρης
TTITLE3=Πλασταράς Νίκος - Το όνειρο
TTITLE4=Πλασταράς Νίκος - Το Ερηνάκι
TTITLE5=Πλασταράς Νίκος - Το πουλί
TTITLE6=Πλασταράς Νίκος - Ο μπαγλαμάς
TTITLE7=Πλασταράς Νίκος - Ο πρωθυπουργός
TTITLE8=Πλασταράς Νίκος - Το κερί
TTITLE9=Πλασταράς Νίκος - Το σπιτάκι
TTITLE10=Χατζηιωάννου Βέτα - Εγώ ρε μάγκα
TTITLE11=Πλασταράς Νίκος - Νυχτόσημο
EXTD=
EXTT0=
EXTT1=
EXTT2=
EXTT3=
EXTT4=
EXTT5=
EXTT6=
EXTT7=
EXTT8=
EXTT9=
EXTT10=
EXTT11=
PLAYORDER=
